<svg xmlns="http://www.w3.org/2000/svg" width="250" height="250" viewBox="0 0 250 250"><defs><style>.cls-1{fill:#2ca6df;}.cls-2{fill:#fff;}</style></defs><title>Asset 4</title><g id="Layer_2" data-name="Layer 2"><g id="Layer_1-2" data-name="Layer 1"><circle class="cls-1" cx="125" cy="125" r="125" transform="translate(-0.22 0.22) rotate(-0.1)"/><path class="cls-2" d="M64.14,173.06c13.68,2.16,30.24-1.8,40.68-11.16-18.36-3.24-23-14.76-24.12-19.08,0,0,6.12.72,10.44-.36C73.86,137.06,71,121.22,70.62,115.1c4,3.24,11.52,3.24,11.52,3.24C67.38,103.58,69.9,90.26,74.94,82c14,18,34.2,27.36,55.8,28.44-6.48-25.56,25.92-46.08,46.8-25.56,6.84-.72,17.64-5.76,17.64-5.76-1.08,5.4-10.08,14-11.52,14.76,6.84-.72,15.12-4,15.12-4-4.68,8.64-11.52,12.6-13.32,14C187.25,164.78,123.53,208,64.14,173.06Z"/></g></g></svg>