<svg xmlns="http://www.w3.org/2000/svg" width="444.79" height="61.46" viewBox="0 0 444.79 61.46"><defs><style>.cls-1{fill:#fff;}</style></defs><title>Asset 2</title><g id="Layer_2" data-name="Layer 2"><g id="Layer_1-2" data-name="Layer 1"><path class="cls-1" d="M53.9,12.9a1.41,1.41,0,0,1,1.38-1.38h20a15.17,15.17,0,0,1,15.3,15c0,6.45-4.3,11.69-10.4,14.18l9.63,17.79a1.34,1.34,0,0,1-1.2,2.06H81.23a1.3,1.3,0,0,1-1.12-.6L70.83,41.43H63V59.31a1.41,1.41,0,0,1-1.38,1.38H55.18a1.36,1.36,0,0,1-1.38-1.38V12.9ZM74.53,34a7.2,7.2,0,0,0,7-7.13,7,7,0,0,0-7-6.79H63.09V34Z"/><path class="cls-1" d="M149.39,58.11l20.89-37.74v-.26H152.75a1.41,1.41,0,0,1-1.38-1.38V12.9a1.41,1.41,0,0,1,1.38-1.38h29.31a1.41,1.41,0,0,1,1.38,1.38v.95L162.8,52.09v.17h17.88a1.36,1.36,0,0,1,1.38,1.38v5.85a1.41,1.41,0,0,1-1.38,1.38H150.77a1.41,1.41,0,0,1-1.38-1.38Z"/><path class="cls-1" d="M241,12a1.18,1.18,0,0,1,1.29-1h1.12a1.28,1.28,0,0,1,1.2.69L260.11,44.7h.17l15.47-33.09a1.2,1.2,0,0,1,1.2-.69h1.12a1.24,1.24,0,0,1,1.29,1l8.25,47.1a1.26,1.26,0,0,1-1.29,1.63H280a1.75,1.75,0,0,1-1.38-1L274.46,33.1h-.17L261.91,60.6a1.26,1.26,0,0,1-1.2.77h-1.29a1.35,1.35,0,0,1-1.2-.77L245.84,33h-.17l-4,26.56a1.31,1.31,0,0,1-1.29,1h-6.27c-.95,0-1.46-.6-1.38-1.63Z"/><path class="cls-1" d="M349.85,12.9a1.41,1.41,0,0,1,1.38-1.38h6.45A1.41,1.41,0,0,1,359,12.9V52.26h17.88a1.36,1.36,0,0,1,1.38,1.38V59.4a1.41,1.41,0,0,1-1.38,1.38h-25.7a1.36,1.36,0,0,1-1.38-1.38Z"/><path class="cls-1" d="M46.67,18.83a1.32,1.32,0,0,0-1.63.43q-1-.13-1.81-.26a5.1,5.1,0,0,0-.34-.69,11.23,11.23,0,0,0-4.13-3.61,6.27,6.27,0,0,0-3,1.81A7.94,7.94,0,0,0,34,22.09c.43.26.86.52,1.2.77,1.38.95,2.41,2.06,4.21,2.06h.17a17.3,17.3,0,0,0,.86,1.55,1.41,1.41,0,0,0-.17,1,1.28,1.28,0,1,0,2.49-.6,1.37,1.37,0,0,0-1.29-1c-.26-.43-.52-.86-.69-1.2a4.3,4.3,0,0,0,2.84-4V20.2c.34.09.77.09,1.29.17a1.22,1.22,0,0,0,.69.77,1.3,1.3,0,0,0,1.72-.69A1.13,1.13,0,0,0,46.67,18.83Z"/><path class="cls-1" d="M37,13.58a21,21,0,0,0-4.56-1.81,27.77,27.77,0,0,0-7-.86,25.27,25.27,0,1,0,0,50.54,23.83,23.83,0,0,0,17-6.79,1.35,1.35,0,0,0,.09-1.89l-4.38-4.47a1.22,1.22,0,0,0-1.72,0,16.73,16.73,0,0,1-10.74,4A15.89,15.89,0,0,1,9.89,36.19c0-8.85,6.7-16.33,15.64-16.33a16.52,16.52,0,0,1,6.7,1.46.08.08,0,0,1,.09.09,9.18,9.18,0,0,1,2.23-5.85A5.72,5.72,0,0,1,37,13.58Z"/><path class="cls-1" d="M105.56,48.22A4.87,4.87,0,0,1,104,48a6.9,6.9,0,0,1-3.87-4.38,9.63,9.63,0,0,1,1.38-7.22c.34-.6.86-1.29,1.29-1.89,1.46-2.15,3-4.38,2.58-6.79a2.82,2.82,0,0,0-1.38-2,3.33,3.33,0,0,0-4,.86c-.95,1.12-1.29,3,.26,5a1.23,1.23,0,0,1-2,1.46,6.36,6.36,0,0,1-.17-8.08,5.71,5.71,0,0,1,7-1.55,5.24,5.24,0,0,1,2.66,3.7c.6,3.35-1.29,6.19-2.92,8.68-.43.6-.86,1.2-1.2,1.81a7.07,7.07,0,0,0-1.12,5.33A4.69,4.69,0,0,0,105,45.65a1.64,1.64,0,0,0,1.46-.09,1.24,1.24,0,0,1,1.38,2.06A5.81,5.81,0,0,1,105.56,48.22Z"/><path class="cls-1" d="M144.49,58.88l-16-35a13,13,0,0,1-7.22,2.23A12.69,12.69,0,0,1,114.15,24L98,59a1.23,1.23,0,0,0,1.2,1.81h6.1a2.22,2.22,0,0,0,2.06-1.38l3.44-7.56h21l3.44,7.56a2,2,0,0,0,2.06,1.38h6.1A1.32,1.32,0,0,0,144.49,58.88Zm-30.34-15L121,28.45h.17l7,15.47Z"/><path class="cls-1" d="M404.52,48.05l3.78-3.35a1.58,1.58,0,0,1,2.41.26c.26.34,4.38,6,8.68,7.39,3.44,1.12,6.79-.26,7.74-3.18,1.12-3.44-1-6.7-5.85-10.74-5.42-4.56-10.4-10.66-7.82-18.48,2-5.93,8.6-11.35,19.17-7.91a24.75,24.75,0,0,1,11.86,8.85,1.75,1.75,0,0,1-.34,2.32l-3.78,3c-.77.6-2,.86-2.58,0-.43-.52-4.38-5.5-8.08-6.7s-6.7.6-7.39,2.75c-1,3.09.77,6.1,5.42,10.06,5.59,4.73,11.86,11,9,19.6-2.23,6.88-10.23,11.26-19.68,8.17-8.42-2.75-12-8.25-13-10C403.74,49.34,403.57,48.91,404.52,48.05Z"/><path class="cls-1" d="M408.56,30.95A17.06,17.06,0,0,1,413,35.07c4.21,5.76,3.44,14.27.34,20.37a17.45,17.45,0,0,1-2.49,3.7c-1.55,1.63-4,1.63-6,1.55-2.58-.09-5.24,0-7.82-.09a13.27,13.27,0,0,1-4.13-.52c-1.2-.43-.86-1.46.09-1.89a3.41,3.41,0,0,1,2.06-.34c2.41.26,1.2-.95,1.2-.95A9.32,9.32,0,0,1,395,54.5c-.34-.77-.69-1.63-1-2.41a18.72,18.72,0,0,1-.86-4.47,7.53,7.53,0,0,1,3.61-7c2.58-1.55,5.33-1.46,7.31.34l1.12-1.29c-2.49-2.23-6.19-2.41-9.37-.52a9.93,9.93,0,0,0-4.47,7c-2.58,1.38-6-.34-8.17-1.72-2-1.29-4-4.21-6.53-4-1.2.09-4-.17-2.84-2.06.69-1.2,2.75-1.38,4-1.29,2,.17,3.52.69,5.42-.09.34-.17,1.89-1.63,2.15-1.55-.52-.09-.77-.26-1.29,0a6.48,6.48,0,0,1-1.12.52,11.53,11.53,0,0,1-3.44,0,22.9,22.9,0,0,1-4-.95c-2.92-1.12-1.72-4.73-1.72-4.73,1.55-6.79,9.2-9.28,9.2-9.28.69-1.29,1.2-2.75,2.58-3.35A2.74,2.74,0,0,1,389,19.08a2.32,2.32,0,0,0,1.38,1.46c1.89.95,2.23,2.92,3.61,4.38,2.66,2.75,6.62,3.61,10.14,4.56A7.66,7.66,0,0,1,408.56,30.95Z"/><path class="cls-1" d="M328.87,43.93S337,40.57,339,30.09c.17-.95,1.81-.86,1.89,0,1,6.62,1,14.61-6.53,21.49Z"/><path class="cls-1" d="M340.65,58.88,324.32,23.12a5.15,5.15,0,0,1-.95,1,9,9,0,0,1-11.86,0,8.1,8.1,0,0,1-.86-.86l-16.5,35.59a1.23,1.23,0,0,0,1.2,1.81h6.1a2.22,2.22,0,0,0,2.06-1.38L307,51.75h21l3.44,7.56a2,2,0,0,0,2.06,1.38h6.1A1.23,1.23,0,0,0,340.65,58.88Zm-30.34-15,6.88-15.47h.17l7,15.47Z"/><path class="cls-1" d="M213.09,26c-2.23-1.46-1-4.3-.43-6.27,1-3.09-.52-7.74-3.18-9.46-3.27-2.15-6.7-1.38-10.14-.69l-8.77,1.81a1,1,0,0,0-.34,1.81L193,15c1.46.95,3.44,2.66,2.32,4.56-1.2,2.06-2.49,3.52-3,5.93-1,4.3-.17,8.85.77,13A67.13,67.13,0,0,0,199.51,55l-3.09,3.18a1.45,1.45,0,0,0,1,2.49h23.72a1.85,1.85,0,0,0,1.55-2.84c-4.13-6.27-7.65-20.63-7.65-20.63l11.17,6.7a1.1,1.1,0,0,0,1.63-1.12C226.58,32.15,213.09,26,213.09,26Zm-7.91,29H202a39.37,39.37,0,0,1-3.7-8A44.44,44.44,0,0,1,196,40.49a.3.3,0,0,0-.09-.17h0c-.26-.86-.52-1.81-.69-2.66-1.46-5.76-2-11.69,1.63-16.76a4.71,4.71,0,0,1,1.55-1.38,2.19,2.19,0,0,1,2.06-.17A2.84,2.84,0,0,1,202,22.61c-3.44,10.74,8,32.23,8,32.23S207.16,54.93,205.18,54.93Z"/><path class="cls-1" d="M131.86,9.54l.34-8.08A1.4,1.4,0,0,0,130.14.17l-4.73,2.49a11.13,11.13,0,0,0-4.21-.77,11.45,11.45,0,0,0-4.21.77L112.26.17a1.4,1.4,0,0,0-2.06,1.29l.34,8.08a12.22,12.22,0,0,0-.6,3.61,11.26,11.26,0,0,0,22.52,0A10,10,0,0,0,131.86,9.54Z"/><path class="cls-1" d="M331.8,7a9.88,9.88,0,0,0-6.45-5.24c-.77-.17-1.12.26-1.2.95A8.65,8.65,0,0,0,317.61.17a9.61,9.61,0,0,0-7,2.58c-.09-.69-.34-1.2-1.2-1A10.08,10.08,0,0,0,302.91,7a11.68,11.68,0,0,0,.43,10.14,2.69,2.69,0,0,0,.77.95,1.7,1.7,0,0,0,2.41-.43,7.74,7.74,0,0,0,1.12-2.75c.09-.17.09-.34.17-.52a10.16,10.16,0,0,0,1.81,4c1.12,1.46,1.38,3.27,2.75,4.56a7.45,7.45,0,0,0,9.8,0c1.46-1.29,1.63-3.09,2.75-4.56a10.16,10.16,0,0,0,1.81-4c.09.17.09.34.17.52A6.43,6.43,0,0,0,328,17.62a1.7,1.7,0,0,0,2.41.43,2.69,2.69,0,0,0,.77-.95A11.13,11.13,0,0,0,331.8,7Z"/></g></g></svg>