<svg xmlns="http://www.w3.org/2000/svg" width="250" height="250" viewBox="0 0 250 250"><defs><style>.cls-1{fill:#2f302f;}.cls-2{fill:#fff;}</style></defs><title>Asset 1</title><g id="Layer_2" data-name="Layer 2"><g id="Layer_1-2" data-name="Layer 1"><circle class="cls-1" cx="125" cy="125" r="125" transform="translate(-0.22 0.22) rotate(-0.1)"/><path class="cls-2" d="M134.72,203.83V135.57h1c6.79,0,13.58,0,20.38,0,.61,0,.86-.15.94-.82.45-3.89.93-7.76,1.42-11.64.55-4.41,1.13-8.81,1.68-13.21a.9.9,0,0,0-.89-1H134.69c0-.25,0-.38,0-.5,0-5.66,0-11.32,0-17a25.11,25.11,0,0,1,.47-4.51c.73-3.76,2.91-6.25,6.59-7.07a29.71,29.71,0,0,1,5.72-.68c4.22-.1,8.44,0,12.65,0,1,0,1,0,1-1q0-3.9,0-7.79c0-4.8,0-9.6,0-14.41,0-.64-.16-.93-.83-.95-1,0-2-.23-3-.26-5.51-.21-11-.46-16.53-.56a35.21,35.21,0,0,0-8.57.82q-14.95,3.47-21.07,16.54a38.27,38.27,0,0,0-3.47,15.85c-.1,6.91,0,13.82-.06,20.73,0,.26,0,.52,0,.82h-.87c-6.89,0-13.77,0-20.66,0-.69,0-1,.15-.95.93q0,12.45,0,24.91a.89.89,0,0,0,.89.91c6.94,0,13.87,0,20.81,0h.79v.76c0,22.15,0,45.36,0,67.51Z"/></g></g></svg>